<svg id="Layer_1" data-name="Layer 1" xmlns="http://www.w3.org/2000/svg" viewBox="0 0 680.36 213.52"><defs><style>.cls-1{fill:#e1fffc;}.cls-2{fill:#f4e4bd;}.cls-3{fill:#eabb53;}.cls-4{font-size:100px;font-family:boulevard-Regular, boulevard;}</style></defs><title>BeeFriendly</title><path d="M85.54,226.81c.48-.31,1.09-1,1.41-.89,7.75,2.9,12-2.41,16.88-7.08,16.94-16.34,36.05-29.11,58.61-35.6a31.81,31.81,0,0,1,13-.7,6.8,6.8,0,0,1,5.94,8.41c-.86,4.23-4.3,5.31-8,3.74-15.46-6.57-29.68-2.2-42.55,6.45-9.58,6.43-18.05,14.71-26.61,22.62-4.37,4.05-3.56,5.12,1.91,8.17,6.61,3.69,13.59,7.2,19.18,12.23,12.53,11.29,10,24.37-5.39,30.94a89.57,89.57,0,0,1-9.63,3.3c-4.54,1.37-5.38,3.43-2,7.31,6.72,7.74,12,16.44,14.28,26.67,6.67,30-12.42,54-42.69,53.84-26.13-.12-38.46-14.38-34.15-40.92,1.92-11.83,5.67-23.4,9.18-34.9,2.2-7.23,2.42-7.8-5.09-9.2C37.13,278.83,25,275,14.22,267.55,8.62,263.66,3.43,259,3.49,250.94c0-6.59,2.93-10.77,9.31-12.23,13.52-3.11,26.06,1.12,38.35,6.16A150.37,150.37,0,0,1,67.25,253c3.69,2.05,6.17,1.54,8.55-2.1a123,123,0,0,1,8.12-10.64C89.48,233.4,89.52,233.44,85.54,226.81Zm-57.61,17c-1.2,0-2.4-.07-3.59,0-4.65.31-9.54,1.76-10.35,6.63-.62,3.68,1.52,8,2.86,11.81.47,1.37,2.11,2.42,3.38,3.38,10.48,7.84,22.49,11.23,35.18,12.29a7.06,7.06,0,0,0,5.49-2.51A62.15,62.15,0,0,0,67.52,263c.57-1.42-.44-4.79-1.67-5.49C54,250.85,41.85,244.58,27.93,243.77Zm92.29,13.94c0-6.76-3.61-11.78-10.54-16.66-12.27-8.64-14-8.31-21.74,4.3-8.82,14.32-8.82,14.32,4,24.52.94.76,1.79,1.83,2.86,2.19,2,.67,4.5,1.87,6.09,1.17a74.24,74.24,0,0,0,15-8.31C118.35,263.09,119.35,259.26,120.22,257.71Zm-12.44,53.1c-2.53.54-4.62,1.18-6.76,1.41-11.64,1.22-23.28,2.59-35,3.38-5.82.39-5.3,4.53-5.61,8.24-.22,2.63-1.24,5.87,3.23,6.46,12.16,1.58,24.18,1.43,36-2.2C109.33,325.16,111.19,321.41,107.78,310.81Zm-28.89-6.47,0,.51c6.09-.71,12.2-1.34,18.27-2.18a13.08,13.08,0,0,0,5-1.76c1.29-.81,3.06-2.31,3.09-3.55.19-7.64-8.09-15.13-15.49-14.46-4.93.44-9.91.44-14.79,1.19-2.06.31-5.09,1.58-5.67,3.18-1.74,4.83-2.5,10-3.65,15.1l12.55,2A4,4,0,0,0,78.89,304.34Zm23.61,35.11c-2.64,0-4-.09-5.33,0-10.28.78-20.55,1.78-30.85,2.35-7.29.4-8.59,2.3-5.09,8.88a14,14,0,0,0,3.37,4.24c6.61,5.33,14,5.55,21.39,2.34S99.31,348.89,102.5,339.45ZM87.24,275.86l.82-2.78-10.08-6q-2.43,4.29-4.84,8.58l1.6,1.76Z" transform="translate(-3.49 -182.18)"/><path class="cls-1" d="M27.93,243.77c13.92.81,26,7.08,37.92,13.77,1.23.7,2.24,4.07,1.67,5.49a62.15,62.15,0,0,1-6.62,12.35,7.06,7.06,0,0,1-5.49,2.51c-12.69-1.06-24.7-4.45-35.18-12.29-1.27-1-2.91-2-3.38-3.38-1.34-3.85-3.48-8.13-2.86-11.81.81-4.87,5.7-6.32,10.35-6.63C25.53,243.7,26.73,243.77,27.93,243.77Z" transform="translate(-3.49 -182.18)"/><path class="cls-2" d="M120.22,257.71c-.87,1.55-1.87,5.38-4.31,7.21a74.24,74.24,0,0,1-15,8.31c-1.59.7-4.11-.5-6.09-1.17-1.07-.36-1.92-1.43-2.86-2.19-12.79-10.2-12.79-10.2-4-24.52,7.77-12.61,9.47-12.94,21.74-4.3C116.61,245.93,120.18,251,120.22,257.71Zm-7.9-6.81c-3.42-2.26-4.79-3.85-6.35-4.05-3.3-.45-8.41,4.51-7.87,7.72.23,1.4,3,3.74,3.53,3.46C104.87,256.35,107.8,254,112.32,250.9Z" transform="translate(-3.49 -182.18)"/><path class="cls-3" d="M107.78,310.81c3.41,10.6,1.55,14.35-8.07,17.29-11.85,3.63-23.87,3.78-36,2.2-4.47-.59-3.45-3.83-3.23-6.46.31-3.71-.21-7.85,5.61-8.24,11.68-.79,23.32-2.16,35-3.38C103.16,312,105.25,311.35,107.78,310.81Z" transform="translate(-3.49 -182.18)"/><path class="cls-3" d="M78.89,304.34a4,4,0,0,1-.6,0l-12.55-2c1.15-5.06,1.91-10.27,3.65-15.1.58-1.6,3.61-2.87,5.67-3.18,4.88-.75,9.86-.75,14.79-1.19,7.4-.67,15.68,6.82,15.49,14.46,0,1.24-1.8,2.74-3.09,3.55a13.08,13.08,0,0,1-5,1.76c-6.07.84-12.18,1.47-18.27,2.18Z" transform="translate(-3.49 -182.18)"/><path class="cls-3" d="M102.5,339.45c-3.19,9.44-9,14.59-16.51,17.82s-14.78,3-21.39-2.34a14,14,0,0,1-3.37-4.24c-3.5-6.58-2.2-8.48,5.09-8.88,10.3-.57,20.57-1.57,30.85-2.35C98.51,339.36,99.86,339.45,102.5,339.45Z" transform="translate(-3.49 -182.18)"/><path class="cls-3" d="M87.24,275.86l-12.5,1.53-1.6-1.76q2.42-4.29,4.84-8.58l10.08,6Z" transform="translate(-3.49 -182.18)"/><path d="M112.32,250.9c-4.52,3.14-7.45,5.45-10.69,7.13-.54.28-3.3-2.06-3.53-3.46-.54-3.21,4.57-8.17,7.87-7.72C107.53,247.05,108.9,248.64,112.32,250.9Z" transform="translate(-3.49 -182.18)"/><text class="cls-4" transform="translate(127.87 160.62)">ee Friendly</text></svg>